<svg id="rabbit" xmlns="http://www.w3.org/2000/svg" viewBox="0 0 73.19 140.66">
	<defs>
		<style>.cls-1{fill:#e7e7e5;}.cls-2{fill:#f4f5f5;}.cls-3{fill:#d5d7d8;}.cls-4{fill:#8f9193;}.cls-5{fill:#aaacaf;}.cls-6{fill:#eaeae9;}.cls-7{fill:#e8e7e6;}.cls-8{fill:#e5e5e7;}</style>
	</defs>
	<title>rabbit</title>
	<line class="cls-1" x1="11.37" y1="66.71" x2="0.5" y2="66.71"/>
	<rect class="cls-2" x="0.5" y="66.21" width="10.87" height="1"/>
	<line class="cls-1" x1="11.37" y1="69.97" x2="5.94" y2="71.02"/>
	<rect class="cls-2" x="364.73" y="313.21" width="5.54" height="1" transform="translate(-411.6 -167.95) rotate(-10.92)"/>
	<line class="cls-1" x1="13.01" y1="72.6" x2="3.36" y2="80.13"/>
	<rect class="cls-2" x="360.92" y="319.08" width="12.24" height="1" transform="translate(-477.77 50.02) rotate(-37.94)"/>
	<path class="cls-3" d="M374.18,299c-6.91,6.9-6.1,16.16-.29,21.18,2.22,1.92.14-6,.49-5.66s1.3,7.27,1.73,7.58a17.7,17.7,0,0,0,10.42,3.35,35.69,35.69,0,0,0,8.83-1.16c0.45-.12.91-0.24,1.36-0.37,11-3.27,21.35-11.69,21.35-24.39,0-16.63-5.68-21.91-19.51-21.91S387.84,285.4,374.18,299Z" transform="translate(-358.85 -243.22)"/>
	<path class="cls-4" d="M371.16,313c0,0.57,1.23.25,1.47,1.46,0.33,1.67,2.16.61,3.55,0.61s-0.68-3,3.28-.5c1,0.6,1.74-.94,1.74-1.56,0-1.14-2.25-2.06-5-2.06S371.16,311.82,371.16,313Z" transform="translate(-358.85 -243.22)"/>
	<path class="cls-3" d="M408.58,300S440.27,262,430,245.39c0,0-10-17.15-22.09,45" transform="translate(-358.85 -243.22)"/>
	<path class="cls-3" d="M402.7,285.3s22.25-34.19,9-41.54c0,0-13.17-7.78-11.65,35.59" transform="translate(-358.85 -243.22)"/>
	<ellipse class="cls-4" cx="41.04" cy="57.69" rx="9.59" ry="9.03"/>
	<path class="cls-2" d="M395.37,301.07a4.33,4.33,0,1,0,4.33-4.18l-0.51,0c-0.46.05,0.91,4,.51,4.15s-2.81-3.23-3.2-2.82A4.08,4.08,0,0,0,395.37,301.07Z" transform="translate(-358.85 -243.22)"/>
	<path class="cls-5" d="M407.89,375.69c5.31-.45,0-11.31-11-10.71-15.51.84-5.56,1-5.56,1s8.93,0,8.55,2.91c0,0-43.7-8.16-36.86,1.22C363,370.11,346.64,380.85,407.89,375.69Z" transform="translate(-358.85 -243.22)"/>
	<path class="cls-3" d="M374.29,342.82c0,13.52,3.77,26.07,13.37,26.07a13.92,13.92,0,0,0,8.28-3.1c0.33-.25.65-0.52,1-0.8,5.09-4.58,7.24-12.19-.23-17.1-12.52-8.23,3.51-21-6.09-21S374.29,329.3,374.29,342.82Z" transform="translate(-358.85 -243.22)"/>
	<path class="cls-3" d="M393.82,329.14c-1.75-2.12,1.63-4.79,2.9-5.2s-4.75,0-4.75,0-2.63,2.39-1.67,4S393.82,329.14,393.82,329.14Z" transform="translate(-358.85 -243.22)"/>
	<path class="cls-3" d="M393.82,329.14s35.78-6.49,14.07,13c0,0,12.9,16.82-8,8.76,0,0-4.06-10.86,11-18.06,0,0-12.39-4.86-17.42-1.73S393.82,329.14,393.82,329.14Z" transform="translate(-358.85 -243.22)"/>
	<path class="cls-3" d="M381.84,328.11s-10.44-2.12-11.52,2.44c0,0-4.19,13.5,4.87,13.86,0,0-16.48,11.32,1.49,8.82,0,0,4.42-10,.72-10.92a12.91,12.91,0,0,0-5.25-10s0.78-4.06,7.18-2.3" transform="translate(-358.85 -243.22)"/>
	<path class="cls-3" d="M397.83,364.07c17.26-8.4,13.08,11.62,13.08,11.62-35.62-8.84-33.68.54-37.53,1.4-9.12,2-.37,5.37-0.37,5.37,1.05,0.88-2.79,2.28,34.92.7S399,349.82,399,349.82" transform="translate(-358.85 -243.22)"/>
	<line class="cls-6" x1="29.06" y1="69.97" x2="59.22" y2="78.55"/>
	<rect class="cls-2" x="402.49" y="301.8" width="1" height="31.36" transform="translate(-371.42 375.1) rotate(-74.13)"/>
	<rect class="cls-2" x="395.78" y="308.84" width="1" height="23.62" transform="translate(-417.32 307.76) rotate(-65.84)"/>
	<rect class="cls-2" x="392.2" y="317.54" width="1" height="19.84" transform="translate(-474.03 143.41) rotate(-46.47)"/>
	<path class="cls-2" d="M409,353.55c-3.89,0-4.71-2-4.71-3.74h1c0,0.68,0,2.74,3.71,2.74v1Z" transform="translate(-358.85 -243.22)"/>
	<path class="cls-2" d="M370.22,354.08v-1A1.62,1.62,0,0,0,372,351.7h1A2.61,2.61,0,0,1,370.22,354.08Z" transform="translate(-358.85 -243.22)"/>
	<path class="cls-2" d="M373,383.88h-1c0-2.79,5.27-4.9,12.25-4.9v1C377.62,380,373,382,373,383.88Z" transform="translate(-358.85 -243.22)"/>
	<path class="cls-2" d="M359.85,373h-1c0-2.49,5.86-3.83,11.37-3.83v1C363.79,370.16,359.85,371.81,359.85,373Z" transform="translate(-358.85 -243.22)"/>
	<path class="cls-7" d="M375.24,344.42c0,0.11,0,.22-0.06.33a26.47,26.47,0,0,0,0,4.44c0.16,4,.74,8.23,2.62,11.83,1.47,2.8,4.28,5.83,7.72,5.83,1.94,0,9.87-4.6,2.4-17-2.44-4.06-3.66-8.65-5-13.15a7,7,0,0,0-8.5-5.21c0.55,1.16,1.82,1.64,2.29,2.89-0.93-1.64-4.33-1.27-5.45,0,2.22,0,2.9,1.5,3.57,3.16a3.29,3.29,0,0,0-3.18-.45c1.74,1.12,4.25,2.68,4.2,5A12.64,12.64,0,0,1,375.24,344.42Z" transform="translate(-358.85 -243.22)"/>
	<path class="cls-3" d="M399.69,278.11c-1.79-.75-3-2.68-4.75-3.61-2.49-1.32-5.28-1.24-8-1.5a5,5,0,0,1,3.29,3.3c-1.2-1.54-4.79-.88-6.47-0.44a11.16,11.16,0,0,0-6.11,4.29c0.87-1.36,2.41-1.2,3.84-1.51a22.84,22.84,0,0,1,6.14-.88c1.63,0.09,3.16.74,3.15,2.63" transform="translate(-358.85 -243.22)"/>
	<path class="cls-8" d="M413.45,283.11s7.75-44.4,17.51-35.75c0,0,6.12,18.68-14.07,41.51,0,0,.21-3.56,1.17-3.56a1.6,1.6,0,0,0-2.18.75s0-4.5,2.18-3.68C418.07,282.38,416.88,280.21,413.45,283.11Z" transform="translate(-358.85 -243.22)"/>
</svg>