<svg id="tail" xmlns="http://www.w3.org/2000/svg" viewBox="0 0 111.61 133.64">
	<defs>
		<style>.cls-1{fill:#443f35;}.cls-2{fill:#e7e2d8;}.cls-3{fill:#818991;}.cls-4{fill:#777c77;}.cls-5{fill:#494547;}.cls-6{fill:#fff;}.cls-7{fill:none;stroke:#4a4947;stroke-miterlimit:10;}</style>
	</defs>
	<title>raccon_layers</title>
	<path class="cls-1" d="M389.22,332.6s14.23-25.33,26.76-19.47-25.54,21-25.54,21Z" transform="translate(-318.68 -225.4)"/>
	<path class="cls-2" d="M416.48,319.77s0-5-7.31-7.11l-3.73,1.62c2.75,2.34,7.44,5.13,8.05,8Z" transform="translate(-318.68 -225.4)"/>
	<path class="cls-2" d="M403,315.95s10.37,6.67,7.45,8.39l-2.92,1.72s-2.31-7.17-7-8Z" transform="translate(-318.68 -225.4)"/>
	<path class="cls-2" d="M403.86,327.68s0.37-5-6.6-6.68l-1.51,2.16s7.13,2.5,4.89,6.45Z" transform="translate(-318.68 -225.4)"/>
	<path class="cls-3" d="M390.43,334.14c6,5.22-4.14,14.4-11.83,14.4s-17.82-7.47-13.93-14.42c7.54-13.46,7.5-16.06,15.19-16.06S386.34,330.6,390.43,334.14Z" transform="translate(-318.68 -225.4)"/>
	<path class="cls-1" d="M383.08,333.43c0,6.49-2.33,12.36-5.06,11.74-9.65-2.17-13.47-4.82-8.92-11.74,3.56-5.42,6.13-11.74,8.92-11.74S383.08,326.94,383.08,333.43Z" transform="translate(-318.68 -225.4)"/>
	<path class="cls-4" d="M370,336.19c1.65-.85,2.9,2.3.84,2.48-0.33,0-.78.17-0.92-0.33-0.21-.79.47-0.33,0.62-0.82,0.2-.64.68-1-0.41-1.46" transform="translate(-318.68 -225.4)"/>
	<path class="cls-3" d="M384.4,346.07s-6.27-.19-1.77,8.39l1.77,2.25s-1.72-8,3.06-11.62" transform="translate(-318.68 -225.4)"/>
	<path class="cls-5" d="M385.36,357.9s-4.33-11-8.62-1.43a1.1,1.1,0,0,0,.51,1.43s1.84,1.84,3.27.82C380.52,358.71,384.68,359.84,385.36,357.9Z" transform="translate(-318.68 -225.4)"/>
	<path class="cls-3" d="M373,346.07s-5.56-.17-1.57,7.67l1.57,2.05s-1.53-7.31,2.72-10.62" transform="translate(-318.68 -225.4)"/>
	<path class="cls-5" d="M373,355.79s-3.84-10.08-7.64-1.31a1,1,0,0,0,.45,1.31s1.63,1.68,2.9.75C368.66,356.53,372.35,357.56,373,355.79Z" transform="translate(-318.68 -225.4)"/>
	<path class="cls-3" d="M370.9,322.92s-6.57-1.47-4.75,1.86-3-1.39-3-1.39,6.07-4.86,8.79-2S370.9,322.92,370.9,322.92Z" transform="translate(-318.68 -225.4)"/>
	<ellipse class="cls-1" cx="44.44" cy="101.37" rx="3.75" ry="3.38"/>
	<path class="cls-3" d="M386.34,324.33s4.74-3.41,5.91.34,2.26-.34,2.26-0.34-0.2-5.92-9.16-2.41" transform="translate(-318.68 -225.4)"/>
	<ellipse class="cls-1" cx="75.17" cy="101.84" rx="3.42" ry="2.9"/>
	<ellipse class="cls-3" cx="55.2" cy="50.8" rx="39.03" ry="40.15"/>
	<path class="cls-1" d="M395.75,293.82c0,5.42-9.78,1.09-24.3,1.09S346,300.19,346,294.78s10.9-9,25.42-9S395.75,288.4,395.75,293.82Z" transform="translate(-318.68 -225.4)"/>
	<path class="cls-2" d="M388.42,305.17c0,3.67-4.89,6.79-11.67,7.88-1.67.27-5.79,0.15-6.06-3-0.15-1.76-2.7,3.29-4.3,3-6.9-1.05-11.91-4.2-11.91-7.92,0-4.58,7.6-8.29,17-8.29S388.42,300.59,388.42,305.17Z" transform="translate(-318.68 -225.4)"/><ellipse class="cls-5" cx="49.68" cy="76.74" rx="5.52" ry="3.03"/>
	<path class="cls-6" d="M356.1,293.15a4.1,4.1,0,1,1-4.09-3.72c0.31,0-.29,2.84,0,2.89s1.63-2.6,2-2.44A3.69,3.69,0,0,1,356.1,293.15Z" transform="translate(-318.68 -225.4)"/>
	<path class="cls-6" d="M394.52,293.15a4.1,4.1,0,1,1-4.09-3.72c0.31,0-.29,2.84,0,2.89s1.63-2.6,2-2.44A3.69,3.69,0,0,1,394.52,293.15Z" transform="translate(-318.68 -225.4)"/>
	<path class="cls-3" d="M405.15,300.23s8.58,2.18,6.4,9.12c0,0-5.69-6.26-10.27-4.56,0,0,6.76,1.57,5.31,7.15,0,0-5.23-6.63-8.55-4.22S403,299.39,405.15,300.23Z" transform="translate(-318.68 -225.4)"/>
	<path class="cls-3" d="M337.35,265.19a30.82,30.82,0,0,1-11.14-26.65s11.49-1.83,24.2,6.68S337.35,265.19,337.35,265.19Z" transform="translate(-318.68 -225.4)"/>
	<path class="cls-3" d="M390.43,247.73s18.69-14.25,33.2-9.66c0,0,1,19-15.76,29.72S390.43,247.73,390.43,247.73Z" transform="translate(-318.68 -225.4)"/>
	<path class="cls-7" d="M381.17,301.59c0-.78,8.16-1.4,18.25-1.4" transform="translate(-318.68 -225.4)"/>
	<path class="cls-7" d="M397.26,312.48c0-3.55-7.2-6.42-16.1-6.42" transform="translate(-318.68 -225.4)"/>
	<path class="cls-7" d="M352,316.84a9.26,9.26,0,0,1,9.4-9.12" transform="translate(-318.68 -225.4)"/>
	<path class="cls-7" d="M347.93,308.26c0-2.56,4.63-4.63,10.35-4.63" transform="translate(-318.68 -225.4)"/>
	<path class="cls-7" d="M356.72,316.34c0-3.49,3.81-6.31,8.51-6.31" transform="translate(-318.68 -225.4)"/>
	<path class="cls-3" d="M412.34,276.2s24.81,3.18,15.25,16.74c0,0-14.88-12.83-16.73-3.51,0,0,15.32,2.79,14,11.15,0,0-18.57-6.53-19.77-.35S412.34,276.2,412.34,276.2Z" transform="translate(-318.68 -225.4)"/>
	<path class="cls-3" d="M362.23,238.51c1.71-3.94-.26-11.38-5.66-11.17,4,0.44,7.18,2.46,8.41,6.37,1.76-3.65,5.47-5.66,9.07-7.3,4.18-1.91,8.83-.86,12.78,1.09a4,4,0,0,0-2.1.5c-2.48,1-5.24,1.77-7.36,3.47-2.77,2.23-2.08,4.76-.57,7.59" transform="translate(-318.68 -225.4)"/>
	<path class="cls-3" d="M410.32,266.58a22.35,22.35,0,0,1,12.85,1.56c2.64,1,5.83,2.24,7.12,5-2.1-2.11-8.61-.45-11.1.23-2,.54-3.7,2-5.45,3.05a9.25,9.25,0,0,0-3,2.31" transform="translate(-318.68 -225.4)"/>
	<path class="cls-3" d="M337.59,270.94c-1.89-2.18-5.1-2.66-7.82-2.74-2.92-.08-9.51-0.08-11.09,3,0.92,0.36,2.26,0,3.29.09a14.56,14.56,0,0,1,5.14,1.74c2.83,1.31,3.37,2.75,5.87,4.6-3.08.21-3.42-.27-6,1.81-2.33,1.87-6.59,5.36-7.22,8.46,4.8-3.31,11.94-2.21,17-.49-2.4.7-4.64,0.52-6.42,2.81-2.44,3.13-4,7.33-5.27,11,2.15-2.19,5.75-3.41,8.6-4.34a10.91,10.91,0,0,1,6.47-.16c-1.52,1.22-3.22,1.43-3.93,3.44a15.63,15.63,0,0,0-.56,4.85c0.6-1.48,4.28-2.33,5.74-2.4a11.51,11.51,0,0,1,3.4.54" transform="translate(-318.68 -225.4)"/>
	<path class="cls-5" d="M327.9,240.15s18.39,4.16,18.12,7.94c0,0-10.08-3.17-11.17.92,0,0,10.63-.84,9.4,2.78,0,0-6.67-1-8.17.9,0,0,6.07.76,3.92,3.58,0,0-3.07-2.47-6.36-.86,0,0,5.43,1.09,5.3,2.72l-2,5S327,254,327.9,240.15Z" transform="translate(-318.68 -225.4)"/>
	<path class="cls-5" d="M422.31,240.15s-21.52,2-21.66,8.72c0,0,9.94-6.81,13.08-1.77,0,0-10.44,1.33-9,4.55,0,0,9.79-3.76,10.33,0,0,0-4.09-.46-4.77,3.21,0,0,5.18-1.91,5.45,0,0,0-5.4,3-4.29,6.13A26.78,26.78,0,0,0,422.31,240.15Z" transform="translate(-318.68 -225.4)"/>
	<path class="cls-7" d="M390.3,319.3c0-5.54-5.42-10-12.12-10" transform="translate(-318.68 -225.4)"/>
	<polyline class="cls-3" points="55.14 89.94 57.29 96.14 60.58 93.04 59.09 89.94 55.14 88.2"/>
</svg>